<svg viewBox="0 0 1000 1000" xmlns="http://www.w3.org/2000/svg"><defs><linearGradient id="b" gradientTransform="rotate(-45 .5 .5)"><stop offset="0%" stop-color="#08AEEA"/><stop offset="100%" stop-color="#50f7fc"/></linearGradient><clipPath id="a"><path fill="currentColor" d="M885.5 651.5Q861 803 724 897.5t-284 28Q293 859 173 761T76.5 508.5q23.5-154.5 110-278t235-124.5q148.5-1 299 41t170 197.5q19.5 155.5-5 307Z"/></clipPath></defs><g clip-path="url(#a)"><path fill="url(#b)" d="M885.5 651.5Q861 803 724 897.5t-284 28Q293 859 173 761T76.5 508.5q23.5-154.5 110-278t235-124.5q148.5-1 299 41t170 197.5q19.5 155.5-5 307Z"/></g></svg>